<?xml version="1.0" encoding="UTF-8"?>
<svg id="Layer_2" data-name="Layer 2" xmlns="http://www.w3.org/2000/svg" viewBox="0 0 32.64 32.64">
  <defs>
    <style>
      .cls-1 {
        fill: #33342f;
        stroke-width: .24px;
      }

      .cls-1, .cls-2, .cls-3 {
        stroke: #33342f;
        stroke-miterlimit: 10;
      }

      .cls-2 {
        fill: none;
        stroke-linecap: round;
      }

      .cls-2, .cls-3 {
        stroke-width: .64px;
      }

      .cls-3 {
        fill: #ffc348;
      }
    </style>
  </defs>
  <g id="Layer_1-2" data-name="Layer 1">
    <rect class="cls-3" x=".32" y=".32" width="32" height="32" rx="5.6" ry="5.6"/>
    <path class="cls-1" d="M9.71,15.34h.37c.42,0,.7,.04,.85,.13,.15,.09,.22,.25,.22,.49,0,.2-.06,.35-.18,.46-.12,.1-.29,.15-.51,.15h-3.96c-.27,0-.46-.05-.56-.14-.11-.09-.16-.25-.16-.47,0-.21,.06-.36,.17-.46s.28-.15,.5-.15h1.86l1.39-2.74-3.15-6.18c-.38,0-.64-.05-.78-.14-.14-.09-.21-.25-.21-.48,0-.2,.06-.35,.17-.45,.11-.1,.29-.15,.52-.15h2.4c.32,0,.54,.04,.64,.13,.11,.09,.16,.24,.16,.47s-.07,.39-.21,.48c-.14,.09-.41,.14-.79,.14h-.32l2.33,4.74,2.37-4.74h-.34c-.4,0-.67-.05-.82-.14-.15-.09-.22-.25-.22-.48s.05-.38,.16-.47c.11-.09,.33-.13,.65-.13h2.12c.23,0,.41,.05,.52,.15,.11,.1,.17,.25,.17,.45,0,.22-.06,.37-.19,.46-.13,.09-.35,.14-.67,.15l-4.52,8.93Z"/>
    <path class="cls-1" d="M20.62,26.42v-5.51h-.16c-.39,0-.66-.05-.8-.14-.15-.09-.22-.25-.22-.48,0-.21,.06-.37,.18-.46s.31-.14,.58-.14h1.23c.15,0,.27,.03,.36,.09,.09,.06,.13,.15,.13,.26v.58c.42-.39,.83-.68,1.24-.86,.41-.19,.83-.28,1.28-.28,.86,0,1.55,.27,2.04,.81,.5,.54,.74,1.28,.74,2.23v3.89h.41c.29,0,.5,.05,.62,.14,.13,.09,.19,.24,.19,.45,0,.22-.07,.38-.2,.48-.13,.09-.37,.14-.72,.14h-1.9c-.37,0-.6-.04-.71-.13s-.16-.25-.16-.49c0-.22,.06-.38,.18-.46,.12-.09,.35-.13,.68-.13h.3v-3.57c0-.67-.15-1.18-.46-1.53-.3-.35-.75-.53-1.33-.53s-1.1,.2-1.55,.59c-.45,.4-.67,.89-.67,1.47v3.57h.3c.34,0,.58,.04,.7,.13s.18,.24,.18,.46c0,.24-.05,.4-.15,.49s-.36,.13-.76,.13h-2.03c-.23,0-.41-.05-.53-.15-.12-.1-.18-.26-.18-.47,0-.23,.07-.39,.2-.47,.13-.08,.4-.12,.79-.12h.18Z"/>
    <line class="cls-2" x1="11.78" y1="21.94" x2="21.46" y2="11.54"/>
  </g>
</svg>
