<?xml version="1.0" encoding="utf-8"?>
<!-- Generator: Adobe Illustrator 27.0.0, SVG Export Plug-In . SVG Version: 6.00 Build 0)  -->
<svg version="1.1" id="Layer_1" xmlns="http://www.w3.org/2000/svg" xmlns:xlink="http://www.w3.org/1999/xlink" x="0px" y="0px"
	 viewBox="0 0 418 418" style="enable-background:new 0 0 418 418;" xml:space="preserve">
<style type="text/css">
	.st0{opacity:0.85;}
	.st1{fill:#33342F;}
	.st2{fill:none;stroke:#33342F;stroke-width:8;stroke-miterlimit:10;}
	.st3{fill:#FFC348;}
	.st4{fill:#33342F;stroke:#33342F;stroke-width:3;stroke-miterlimit:10;}
	.st5{fill:none;stroke:#33342F;stroke-width:8;stroke-linecap:round;stroke-miterlimit:10;}
</style>
<g>
	<g class="st0">
		<path class="st1" d="M344,414H84c-38.66,0-70-31.34-70-70V84c0-38.66,31.34-70,70-70h260c38.66,0,70,31.34,70,70v260
			C414,382.66,382.66,414,344,414z"/>
		<path class="st2" d="M344,414H84c-38.66,0-70-31.34-70-70V84c0-38.66,31.34-70,70-70h260c38.66,0,70,31.34,70,70v260
			C414,382.66,382.66,414,344,414z"/>
	</g>
	<g>
		<path class="st3" d="M334,404H74c-38.66,0-70-31.34-70-70V74C4,35.34,35.34,4,74,4h260c38.66,0,70,31.34,70,70v260
			C404,372.66,372.66,404,334,404z"/>
		<path class="st2" d="M334,404H74c-38.66,0-70-31.34-70-70V74C4,35.34,35.34,4,74,4h260c38.66,0,70,31.34,70,70v260
			C404,372.66,372.66,404,334,404z"/>
	</g>
</g>
<g>
	<path class="st4" d="M121.38,191.8H126c5.23,0,8.77,0.55,10.63,1.67c1.86,1.11,2.79,3.13,2.79,6.07c0,2.51-0.74,4.4-2.2,5.69
		c-1.47,1.29-3.6,1.93-6.39,1.93H81.31c-3.37,0-5.71-0.57-7.04-1.72c-1.33-1.15-1.99-3.12-1.99-5.91c0-2.58,0.7-4.51,2.09-5.8
		s3.49-1.93,6.28-1.93h23.31l17.4-34.3L81.96,80.19c-4.73,0-7.97-0.57-9.72-1.71c-1.76-1.14-2.63-3.13-2.63-5.97
		c0-2.49,0.71-4.35,2.15-5.6c1.43-1.24,3.58-1.87,6.45-1.87h29.97c4.01,0,6.7,0.55,8.06,1.65c1.36,1.1,2.04,3.04,2.04,5.81
		c0,2.85-0.9,4.84-2.69,5.97c-1.79,1.14-5.09,1.71-9.88,1.71h-3.97l29.11,59.3l29.65-59.3h-4.19c-4.94,0-8.34-0.57-10.21-1.71
		c-1.86-1.14-2.79-3.13-2.79-5.97c0-2.77,0.68-4.71,2.04-5.81c1.36-1.1,4.08-1.65,8.16-1.65h26.53c2.94,0,5.1,0.62,6.5,1.87
		c1.4,1.25,2.09,3.11,2.09,5.6c0,2.7-0.79,4.62-2.36,5.76c-1.58,1.14-4.37,1.78-8.38,1.92L121.38,191.8z"/>
</g>
<g>
	<path class="st4" d="M257.79,330.25v-68.86h-2.04c-4.87,0-8.22-0.57-10.04-1.72c-1.83-1.14-2.74-3.15-2.74-6.02
		c0-2.65,0.75-4.57,2.26-5.75s3.94-1.77,7.3-1.77h5.05h10.31c1.93,0,3.44,0.39,4.51,1.18c1.07,0.79,1.61,1.86,1.61,3.22v7.3
		c5.23-4.87,10.4-8.47,15.52-10.8c5.12-2.33,10.44-3.49,15.95-3.49c10.81,0,19.32,3.37,25.51,10.1c6.19,6.73,9.29,16.04,9.29,27.93
		v48.66h5.08c3.61,0,6.2,0.59,7.79,1.77c1.59,1.18,2.38,3.06,2.38,5.64c0,2.79-0.84,4.78-2.53,5.96c-1.69,1.18-4.68,1.77-8.99,1.77
		h-23.79c-4.6,0-7.54-0.54-8.83-1.61s-1.94-3.12-1.94-6.12c0-2.79,0.76-4.73,2.27-5.8c1.51-1.07,4.36-1.61,8.55-1.61h3.79v-44.69
		c0-8.38-1.9-14.77-5.71-19.17c-3.8-4.4-9.33-6.61-16.58-6.61c-7.32,0-13.78,2.47-19.38,7.41s-8.4,11.06-8.4,18.37v44.69h3.76
		c4.3,0,7.2,0.54,8.7,1.61s2.26,3.01,2.26,5.8c0,3.01-0.64,5.05-1.93,6.12s-4.44,1.61-9.45,1.61h-19.55h-5.8
		c-2.94,0-5.14-0.63-6.61-1.88c-1.47-1.25-2.2-3.2-2.2-5.85c0-2.86,0.84-4.82,2.53-5.85c1.68-1.04,4.96-1.56,9.83-1.56H257.79z"/>
</g>
<line class="st5" x1="147.3" y1="274.25" x2="268.2" y2="144.25"/>
</svg>
